<svg width="14" height="11" viewBox="0 0 14 11" fill="none" xmlns="http://www.w3.org/2000/svg">
<path d="M14 3.54687V9.75C14 10.0937 13.8776 10.388 13.6328 10.6328C13.388 10.8776 13.0938 11 12.75 11H1.25C0.90625 11 0.611979 10.8776 0.367188 10.6328C0.122396 10.388 0 10.0937 0 9.75V3.54687C0.229167 3.80208 0.492188 4.02865 0.789063 4.22656C2.67448 5.50781 3.96875 6.40625 4.67188 6.92187C4.96875 7.14062 5.20833 7.3125 5.39063 7.4375C5.57813 7.55729 5.82552 7.68229 6.13281 7.8125C6.4401 7.9375 6.72656 8 6.99219 8H7H7.00781C7.27344 8 7.5599 7.9375 7.86719 7.8125C8.17448 7.68229 8.41927 7.55729 8.60156 7.4375C8.78906 7.3125 9.03125 7.14062 9.32813 6.92187C10.2135 6.28125 11.5104 5.38281 13.2188 4.22656C13.5156 4.02344 13.776 3.79687 14 3.54687ZM14 1.25C14 1.66146 13.8724 2.05469 13.6172 2.42969C13.362 2.80469 13.0443 3.125 12.6641 3.39062C10.7057 4.75 9.48698 5.59635 9.00781 5.92969C8.95573 5.96615 8.84375 6.04687 8.67188 6.17188C8.50521 6.29167 8.36458 6.39062 8.25 6.46875C8.14063 6.54167 8.00521 6.625 7.84375 6.71875C7.6875 6.8125 7.53906 6.88281 7.39844 6.92969C7.25781 6.97656 7.1276 7 7.00781 7H7H6.99219C6.8724 7 6.74219 6.97656 6.60156 6.92969C6.46094 6.88281 6.3099 6.8125 6.14844 6.71875C5.99219 6.625 5.85677 6.54167 5.74219 6.46875C5.63281 6.39062 5.49219 6.29167 5.32031 6.17188C5.15365 6.04687 5.04427 5.96615 4.99219 5.92969C4.51823 5.59635 3.83594 5.1224 2.94531 4.50781C2.05469 3.88802 1.52083 3.51562 1.34375 3.39062C1.02083 3.17187 0.716146 2.8724 0.429688 2.49219C0.143229 2.10677 0 1.75 0 1.42187C0 1.01562 0.106771 0.677083 0.320313 0.40625C0.539063 0.135416 0.848958 -2.38419e-07 1.25 -2.38419e-07H12.75C13.0885 -2.38419e-07 13.3802 0.122395 13.625 0.367187C13.875 0.611979 14 0.90625 14 1.25Z" fill="white"/>
</svg>
