<svg width="16" height="11" viewBox="0 0 16 11" fill="none" xmlns="http://www.w3.org/2000/svg">
<g id="radix-icons:hamburger-menu" clip-path="url(#clip0_81_4557)">
<g id="Group">
<path id="Vector" fill-rule="evenodd" clip-rule="evenodd" d="M0.615385 0C0.452174 0 0.295649 0.0643849 0.180242 0.17899C0.064835 0.293596 0 0.449034 0 0.611111C0 0.773188 0.064835 0.928626 0.180242 1.04323C0.295649 1.15784 0.452174 1.22222 0.615385 1.22222H15.3846C15.5478 1.22222 15.7044 1.15784 15.8198 1.04323C15.9352 0.928626 16 0.773188 16 0.611111C16 0.449034 15.9352 0.293596 15.8198 0.17899C15.7044 0.0643849 15.5478 0 15.3846 0H0.615385ZM0 5.5C0 5.33792 0.064835 5.18248 0.180242 5.06788C0.295649 4.95327 0.452174 4.88889 0.615385 4.88889H15.3846C15.5478 4.88889 15.7044 4.95327 15.8198 5.06788C15.9352 5.18248 16 5.33792 16 5.5C16 5.66208 15.9352 5.81751 15.8198 5.93212C15.7044 6.04673 15.5478 6.11111 15.3846 6.11111H0.615385C0.452174 6.11111 0.295649 6.04673 0.180242 5.93212C0.064835 5.81751 0 5.66208 0 5.5ZM0 10.3889C0 10.2268 0.064835 10.0714 0.180242 9.95677C0.295649 9.84216 0.452174 9.77778 0.615385 9.77778H15.3846C15.5478 9.77778 15.7044 9.84216 15.8198 9.95677C15.9352 10.0714 16 10.2268 16 10.3889C16 10.551 15.9352 10.7064 15.8198 10.821C15.7044 10.9356 15.5478 11 15.3846 11H0.615385C0.452174 11 0.295649 10.9356 0.180242 10.821C0.064835 10.7064 0 10.551 0 10.3889Z" fill="black"/>
</g>
</g>
<defs>
<clipPath id="clip0_81_4557">
<rect width="16" height="11" fill="white"/>
</clipPath>
</defs>
</svg>
